<mxfile host="65bd71144e">
    <diagram id="U5J8W7ALGdApF881JIMc" name="Page-1">
        <mxGraphModel dx="1954" dy="1692" grid="1" gridSize="10" guides="1" tooltips="1" connect="1" arrows="1" fold="1" page="1" pageScale="1" pageWidth="827" pageHeight="1169" math="0" shadow="0">
            <root>
                <mxCell id="0"/>
                <mxCell id="1" parent="0"/>
                <mxCell id="2" value="&lt;font style=&quot;font-size: 15px;&quot;&gt;GESTION CARGAISONS&lt;/font&gt;" style="rounded=0;whiteSpace=wrap;html=1;" vertex="1" parent="1">
                    <mxGeometry x="-800" y="-290" width="190" height="60" as="geometry"/>
                </mxCell>
                <mxCell id="3" value="" style="endArrow=classic;startArrow=classic;html=1;fontSize=15;" edge="1" parent="1">
                    <mxGeometry width="50" height="50" relative="1" as="geometry">
                        <mxPoint x="-732" y="110" as="sourcePoint"/>
                        <mxPoint x="-720" y="-220" as="targetPoint"/>
                    </mxGeometry>
                </mxCell>
                <mxCell id="5" value="&lt;ol&gt;&lt;li&gt;numÃ©ro&lt;/li&gt;&lt;li&gt;poids max&lt;/li&gt;&lt;li&gt;produits&lt;/li&gt;&lt;li&gt;prix total produit&lt;/li&gt;&lt;li&gt;lieuDepart&lt;/li&gt;&lt;li&gt;lieuArrive&lt;/li&gt;&lt;li&gt;distance km&lt;/li&gt;&lt;li&gt;type&lt;/li&gt;&lt;li&gt;etat d'avancement(en attente, en cours, arriver&lt;/li&gt;&lt;li&gt;etat global(ouvert ou fermer&lt;/li&gt;&lt;/ol&gt;" style="rounded=0;whiteSpace=wrap;html=1;fontSize=15;align=left;" vertex="1" parent="1">
                    <mxGeometry x="-782" y="110" width="272" height="350" as="geometry"/>
                </mxCell>
                <mxCell id="6" value="Authentification" style="ellipse;whiteSpace=wrap;html=1;fontSize=15;" vertex="1" parent="1">
                    <mxGeometry x="-440" width="120" height="80" as="geometry"/>
                </mxCell>
                <mxCell id="7" value="" style="endArrow=none;dashed=1;html=1;dashPattern=1 3;strokeWidth=2;fontSize=15;exitX=1;exitY=0;exitDx=0;exitDy=0;" edge="1" parent="1" source="5">
                    <mxGeometry width="50" height="50" relative="1" as="geometry">
                        <mxPoint x="-490" y="100" as="sourcePoint"/>
                        <mxPoint x="-440" y="50" as="targetPoint"/>
                    </mxGeometry>
                </mxCell>
                <mxCell id="9" value="admin" style="shape=umlActor;verticalLabelPosition=bottom;verticalAlign=top;html=1;outlineConnect=0;fontSize=15;" vertex="1" parent="1">
                    <mxGeometry x="-460" y="-200" width="30" height="60" as="geometry"/>
                </mxCell>
                <mxCell id="17" value="" style="endArrow=none;html=1;fontSize=15;" edge="1" parent="1">
                    <mxGeometry width="50" height="50" relative="1" as="geometry">
                        <mxPoint x="-400" y="-10" as="sourcePoint"/>
                        <mxPoint x="-432" y="-130" as="targetPoint"/>
                    </mxGeometry>
                </mxCell>
                <mxCell id="20" value="client" style="shape=umlActor;verticalLabelPosition=bottom;verticalAlign=top;html=1;outlineConnect=0;fontSize=15;" vertex="1" parent="1">
                    <mxGeometry x="130" y="-228" width="30" height="60" as="geometry"/>
                </mxCell>
                <mxCell id="21" value="" style="swimlane;horizontal=0;whiteSpace=wrap;html=1;fontSize=15;" vertex="1" parent="1">
                    <mxGeometry x="41" y="-110" width="539" height="420" as="geometry"/>
                </mxCell>
                <mxCell id="22" value="recherche coli" style="rounded=0;whiteSpace=wrap;html=1;fontSize=15;" vertex="1" parent="21">
                    <mxGeometry x="409" y="10" width="110" height="20" as="geometry"/>
                </mxCell>
            </root>
        </mxGraphModel>
    </diagram>
</mxfile>